<mxfile host="Electron" modified="2024-04-25T01:35:38.141Z" agent="Mozilla/5.0 (X11; Linux x86_64) AppleWebKit/537.36 (KHTML, like Gecko) draw.io/24.2.5 Chrome/120.0.6099.109 Electron/28.1.0 Safari/537.36" etag="dILkooXZbMXH-oTXCMMt" version="24.2.5" type="device">
  <diagram name="Page-1" id="gSqhiJkrNYTWKnmw8Ukt">
    <mxGraphModel dx="1434" dy="835" grid="1" gridSize="10" guides="1" tooltips="1" connect="1" arrows="1" fold="1" page="1" pageScale="1" pageWidth="850" pageHeight="1100" math="0" shadow="0">
      <root>
        <mxCell id="0" />
        <mxCell id="1" parent="0" />
        <mxCell id="YputKyTv26udTM_MxO3S-1" value="A" style="rounded=1;whiteSpace=wrap;html=1;shadow=0;strokeColor=#6c8ebf;strokeWidth=2;fontFamily=Ubuntu;fontSize=22;fontColor=#264653;fontStyle=0;fillColor=#dae8fc;" vertex="1" parent="1">
          <mxGeometry x="170" y="250" width="80" height="50" as="geometry" />
        </mxCell>
        <mxCell id="YputKyTv26udTM_MxO3S-2" value="A" style="rounded=1;whiteSpace=wrap;html=1;shadow=0;strokeColor=#6c8ebf;strokeWidth=2;fontFamily=Ubuntu;fontSize=22;fontColor=#264653;fontStyle=0;fillColor=#dae8fc;" vertex="1" parent="1">
          <mxGeometry x="320" y="250" width="80" height="50" as="geometry" />
        </mxCell>
        <mxCell id="YputKyTv26udTM_MxO3S-3" value="^" style="rounded=1;whiteSpace=wrap;html=1;shadow=0;strokeWidth=2;fontFamily=Ubuntu;fontSize=22;fontColor=#264653;fontStyle=0;fillColor=#2a9d8f;strokeColor=#264653;" vertex="1" parent="1">
          <mxGeometry x="260" y="255" width="50" height="40" as="geometry" />
        </mxCell>
        <mxCell id="YputKyTv26udTM_MxO3S-4" value="= 0" style="text;html=1;align=center;verticalAlign=middle;whiteSpace=wrap;rounded=0;fontFamily=Ubuntu;fontSize=22;fontColor=#264653;fontStyle=0;" vertex="1" parent="1">
          <mxGeometry x="410" y="260" width="60" height="30" as="geometry" />
        </mxCell>
      </root>
    </mxGraphModel>
  </diagram>
</mxfile>
